<?xml version="1.0" standalone="no"?>
<!DOCTYPE svg PUBLIC "-//W3C//DTD SVG 20010904//EN"
 "http://www.w3.org/TR/2001/REC-SVG-20010904/DTD/svg10.dtd">
<svg version="1.0" xmlns="http://www.w3.org/2000/svg"
 width="1920.000000pt" height="1920.000000pt" viewBox="0 0 1920.000000 1920.000000"
 preserveAspectRatio="xMidYMid meet">

<g transform="translate(0.000000,1920.000000) scale(0.100000,-0.100000)"
fill="#000000" stroke="none">
<path d="M16120 18272 c-161 -310 -468 -654 -825 -923 -326 -245 -632 -423
-1265 -734 l-115 -57 56 59 c230 238 432 622 504 953 20 92 33 354 17 349 -5
-2 -43 -47 -82 -99 -263 -345 -585 -666 -883 -881 -566 -406 -1196 -619 -2047
-694 -285 -24 -527 -34 -1096 -45 -886 -16 -1266 -36 -1694 -91 -360 -46 -525
-81 -923 -198 -340 -100 -416 -116 -568 -116 -125 0 -125 0 -201 38 -126 62
-207 170 -277 372 -31 87 -83 324 -97 437 -3 32 -10 56 -14 53 -23 -14 -99
-211 -126 -325 -22 -95 -29 -390 -12 -517 8 -57 10 -103 5 -103 -9 0 -105 88
-151 139 -51 56 -97 123 -126 184 -29 59 -40 58 -40 -4 0 -16 -3 -29 -7 -29
-5 0 -39 50 -78 110 l-70 109 -10 -37 c-14 -54 -22 -62 -59 -62 -71 0 -264
174 -485 438 -52 61 -96 111 -97 109 -1 -1 4 -78 12 -171 7 -93 13 -171 11
-172 -2 -2 -39 43 -82 99 -139 178 -225 277 -241 277 -21 0 -16 -13 73 -215
265 -596 345 -814 374 -1020 6 -44 13 -87 16 -95 3 -8 15 35 28 96 30 148 55
194 104 194 46 -1 122 -83 241 -260 33 -50 62 -90 64 -90 2 0 -12 44 -30 98
-42 126 -50 181 -30 207 14 20 15 20 57 -10 116 -82 281 -375 309 -549 9 -55
8 -83 -4 -145 -21 -103 -33 -248 -46 -546 -15 -348 -30 -445 -70 -445 -35 0
-100 131 -177 355 -19 55 -37 102 -40 105 -15 14 8 -430 31 -604 14 -105 24
-192 22 -194 -6 -5 -67 101 -110 193 -92 194 -141 348 -256 806 -44 178 -98
376 -118 439 l-37 115 -6 -215 c-5 -203 -13 -280 -28 -280 -4 0 -29 82 -55
183 -80 299 -191 623 -226 661 -9 9 -7 0 60 -283 23 -95 39 -175 36 -178 -6
-6 -50 64 -60 94 -4 11 -14 27 -23 35 -15 12 -16 5 -9 -77 28 -344 126 -663
398 -1285 131 -299 200 -467 262 -644 31 -86 56 -159 56 -163 0 -25 -394 396
-490 523 -108 142 -219 397 -220 504 0 18 -3 21 -11 13 -7 -7 -12 -55 -11
-130 0 -242 62 -377 332 -718 120 -151 207 -276 260 -369 39 -69 47 -70 -131
9 -67 30 -124 53 -126 52 -1 -2 18 -19 45 -37 51 -37 342 -318 373 -362 l20
-28 -63 30 c-78 37 -108 39 -108 7 0 -31 52 -111 205 -313 70 -91 124 -168
122 -170 -3 -3 -41 23 -86 57 -45 34 -83 60 -86 57 -3 -3 54 -81 127 -174 231
-296 368 -526 404 -679 26 -108 29 -108 32 8 1 59 6 107 10 107 4 0 27 -37 52
-82 67 -122 158 -256 182 -269 26 -14 38 1 38 49 0 17 2 32 5 32 15 0 81 -33
98 -48 39 -34 79 -137 114 -286 19 -83 44 -174 55 -203 26 -70 69 -113 112
-113 33 0 34 2 61 78 43 121 132 287 211 392 91 121 229 254 252 244 36 -15
56 -8 81 28 31 43 89 93 98 84 4 -3 -1 -39 -10 -79 -10 -39 -17 -85 -17 -102
l0 -30 20 25 c11 14 62 86 115 160 230 328 309 393 330 269 l7 -39 71 114 c69
111 154 224 169 226 13 0 -25 -106 -87 -246 -64 -143 -110 -274 -103 -295 2
-6 39 51 82 128 493 865 843 1354 1313 1834 278 285 313 339 468 749 136 358
174 429 371 678 297 373 603 680 938 936 126 97 366 259 373 253 11 -11 -52
-229 -104 -362 -208 -529 -589 -1051 -912 -1248 -76 -47 -94 -65 -199 -197
-246 -308 -254 -344 -37 -175 54 42 99 75 101 73 7 -7 -55 -128 -97 -190 -58
-85 -192 -222 -384 -393 -272 -241 -370 -359 -446 -534 -91 -211 -174 -318
-494 -636 -318 -315 -386 -398 -461 -560 -35 -77 -79 -223 -70 -232 8 -8 63
30 211 147 231 183 315 234 338 211 11 -11 3 -55 -17 -102 -5 -10 84 29 226
100 418 211 789 341 1213 426 495 99 974 104 1438 16 83 -15 97 -16 97 -4 0
29 -127 140 -241 211 -194 120 -253 188 -220 251 7 12 57 44 112 72 56 27 185
98 287 156 210 120 316 171 416 202 114 35 179 23 212 -40 31 -60 15 -212 -41
-394 -6 -19 -5 -19 7 -1 203 292 322 381 384 289 16 -24 19 -46 18 -158 -1
-117 -5 -143 -37 -255 -19 -69 -39 -134 -43 -145 -4 -11 35 24 87 78 74 75
101 97 122 97 25 0 27 -3 27 -37 -1 -21 -7 -81 -14 -133 -13 -94 -9 -140 14
-140 23 0 76 35 128 83 52 50 53 50 46 22 -43 -179 -177 -427 -313 -577 -31
-35 -62 -71 -70 -81 -13 -16 -12 -16 15 -4 136 60 291 162 422 277 90 78 92
80 92 52 0 -119 -71 -357 -154 -519 -37 -73 -49 -103 -37 -100 9 3 44 17 79
32 68 28 99 29 115 3 17 -26 -48 -146 -168 -307 -58 -78 -105 -143 -105 -144
0 -2 32 0 71 4 67 6 132 -1 147 -16 14 -13 -26 -62 -91 -110 -97 -74 -207
-137 -426 -247 -107 -54 -190 -98 -185 -98 5 0 144 27 309 59 165 32 302 56
304 54 14 -12 -183 -181 -299 -256 -105 -67 -145 -88 -288 -147 -76 -32 -108
-49 -97 -54 9 -3 143 -6 298 -7 155 0 291 -4 302 -9 16 -7 1 -17 -85 -58 -58
-28 -152 -67 -210 -87 -108 -37 -331 -95 -372 -95 -54 -1 21 -20 309 -81 167
-35 299 -66 295 -70 -13 -13 -223 -68 -350 -93 -70 -13 -208 -37 -307 -51 -99
-15 -182 -29 -183 -30 -2 -2 79 -44 180 -93 101 -50 191 -99 201 -110 18 -20
18 -20 -60 -28 -153 -14 -439 25 -710 96 -62 17 -115 30 -119 30 -4 0 12 -17
37 -37 172 -147 459 -436 445 -450 -9 -9 -212 37 -328 73 -62 20 -204 72 -316
116 -112 44 -205 78 -207 76 -3 -2 45 -73 105 -158 61 -84 108 -155 105 -158
-9 -9 -115 32 -300 118 -104 48 -212 95 -240 105 -48 16 -95 14 -95 -4 0 -13
250 -249 340 -320 125 -100 273 -175 383 -195 47 -9 55 7 37 76 -7 28 -8 53
-4 58 5 5 61 -15 124 -45 266 -123 390 -136 390 -41 l0 33 143 5 c149 5 211
20 224 54 3 10 -1 39 -10 65 -39 108 -16 124 187 132 209 8 240 30 178 128
-16 24 -36 50 -45 58 -9 7 -17 17 -17 21 0 5 53 21 118 36 146 34 190 49 219
76 34 32 28 56 -23 104 -29 26 -45 48 -41 57 3 8 35 22 71 31 155 39 236 87
236 140 0 58 -69 144 -182 230 -21 16 -36 31 -34 35 3 4 40 8 83 10 99 3 236
27 276 47 54 27 67 44 67 85 0 52 -55 117 -167 196 -29 20 -53 39 -53 42 1 3
33 25 73 48 252 148 316 291 167 374 -22 13 -40 26 -40 30 0 4 11 20 24 36 88
106 164 255 217 432 45 150 41 164 -49 175 -97 12 -96 7 -52 180 44 173 40
220 -20 251 -42 22 -40 60 11 191 l40 107 -24 26 c-46 49 -49 64 -45 219 l3
147 -30 -2 c-16 -1 -55 -20 -86 -42 l-57 -39 -5 32 c-2 17 -5 89 -6 161 -2
145 -12 178 -53 183 -20 2 -38 -7 -72 -41 l-46 -44 0 131 c0 155 -9 181 -59
181 -35 0 -58 22 -67 65 -18 85 -39 91 -194 60 -125 -25 -157 -23 -190 12 -39
42 -24 69 60 111 97 48 203 71 480 102 124 14 253 30 287 36 34 6 67 9 73 7 5
-1 -55 -79 -135 -173 -79 -93 -144 -172 -145 -175 0 -3 18 -4 40 -2 84 8 125
-33 149 -150 7 -31 18 -59 26 -62 27 -10 113 106 239 322 27 45 51 82 54 82 3
0 2 -64 -1 -142 -6 -148 -23 -264 -62 -425 l-23 -94 28 33 28 33 -1 -90 c-1
-111 6 -135 39 -135 28 0 86 73 167 212 36 61 54 85 62 77 15 -15 12 -260 -4
-344 -7 -38 -42 -186 -77 -329 -44 -177 -64 -278 -64 -320 0 -76 18 -106 63
-106 38 0 152 53 234 108 88 59 87 58 67 21 -43 -85 -127 -194 -232 -301
l-114 -116 121 38 c67 21 121 36 121 34 0 -1 -28 -47 -62 -101 -114 -181 -150
-290 -109 -327 17 -16 31 -18 81 -13 46 4 60 2 60 -8 0 -8 -58 -64 -130 -125
-71 -62 -130 -113 -130 -115 0 -2 17 1 38 6 51 12 100 11 107 -2 12 -18 -39
-81 -123 -154 -44 -38 -81 -73 -81 -76 -1 -3 20 -4 47 -2 142 13 95 -104 -131
-324 -58 -57 -102 -105 -99 -107 16 -9 162 -35 237 -42 44 -4 86 -10 94 -14
18 -10 -54 -63 -214 -158 -126 -76 -142 -86 -163 -114 -31 -40 30 -82 187
-129 45 -13 81 -26 81 -29 0 -3 -42 -21 -93 -40 -197 -74 -337 -157 -337 -200
0 -25 38 -53 109 -80 78 -29 93 -46 63 -71 -44 -35 -249 -98 -560 -171 -163
-38 -162 -29 -12 -110 121 -65 211 -128 203 -141 -12 -20 -336 4 -610 47 -13
2 -23 2 -23 0 0 -1 35 -27 78 -57 85 -59 142 -118 142 -145 -1 -58 -59 -74
-341 -97 -276 -23 -457 -54 -444 -76 4 -5 15 -9 27 -9 42 0 248 -77 377 -141
232 -115 441 -258 584 -400 57 -57 77 -83 77 -103 0 -23 -4 -26 -35 -26 -19 0
-63 11 -97 24 -78 29 -293 137 -419 209 -174 100 -175 99 -46 -37 84 -90 147
-170 147 -188 0 -4 -80 43 -177 105 -227 142 -464 262 -623 315 -68 22 -127
39 -130 36 -10 -11 95 -93 198 -156 317 -193 405 -269 468 -403 20 -42 35 -78
32 -80 -5 -5 -99 48 -237 133 -163 100 -208 76 -177 -95 7 -40 9 -73 5 -73 -9
0 -303 210 -399 284 -136 106 -309 252 -413 348 l-107 100 6 -56 c13 -108 -29
-106 -131 6 -50 55 -117 143 -403 527 -72 96 -153 193 -158 189 -1 -2 6 -37
16 -78 11 -41 42 -186 70 -321 28 -135 66 -301 86 -369 19 -67 33 -124 31
-126 -7 -7 -214 134 -312 213 -271 218 -514 507 -838 995 -83 125 -152 226
-154 224 -8 -7 104 -253 162 -356 173 -308 356 -540 866 -1096 330 -360 315
-337 182 -271 -60 30 -183 98 -273 150 -91 52 -176 100 -190 107 l-25 13 26
-34 c188 -250 528 -764 514 -777 -2 -3 -42 19 -87 49 -331 216 -587 512 -825
951 l-80 147 -11 -157 c-13 -165 -28 -253 -63 -364 -20 -64 -39 -81 -39 -36 0
11 -34 163 -75 337 -40 174 -85 372 -99 441 -79 401 -54 536 77 415 21 -19 40
-35 42 -35 4 0 -41 102 -187 425 -135 297 -193 459 -233 652 -18 88 -38 286
-33 329 3 27 5 26 37 -31 46 -78 164 -201 254 -263 213 -146 494 -236 782
-250 240 -12 414 9 614 74 352 115 627 347 791 668 53 106 92 217 142 406 33
125 33 126 33 376 1 220 3 255 18 278 30 45 80 32 182 -48 l40 -31 -42 58
c-89 125 -72 155 130 226 126 44 189 76 238 121 l44 39 -80 -25 c-70 -22 -93
-25 -185 -22 -115 5 -162 18 -336 94 -175 75 -365 90 -746 59 -100 -9 -241
-14 -313 -13 l-130 3 60 18 c33 10 78 26 100 37 l40 18 -40 -5 c-263 -34 -607
-138 -922 -279 -234 -104 -346 -162 -963 -498 -361 -197 -642 -330 -894 -423
-103 -38 -137 -46 -226 -52 -149 -10 -192 -33 -342 -181 -64 -63 -169 -158
-234 -210 -139 -114 -236 -214 -356 -372 -55 -74 -95 -118 -107 -118 -26 0
-51 31 -136 175 -134 223 -282 441 -388 568 -121 145 -427 455 -547 554 -355
292 -707 487 -1125 625 -98 32 -194 68 -211 79 -57 35 -133 128 -174 213 -61
128 -92 275 -71 339 28 83 75 49 203 -143 15 -24 15 -21 2 40 -21 96 -30 371
-14 454 23 125 74 150 144 70 23 -25 93 -102 156 -171 133 -143 190 -229 190
-283 0 -45 -26 -81 -130 -182 -115 -111 -120 -156 -22 -208 33 -17 103 -65
158 -107 250 -191 304 -226 359 -237 45 -9 59 6 65 67 l5 55 100 -111 c113
-125 196 -197 227 -197 19 0 20 4 15 48 -11 95 -141 384 -421 937 -271 535
-316 641 -350 828 -54 291 -74 564 -81 1110 -9 648 -27 956 -71 1217 -24 143
-69 332 -107 453 -19 59 -34 107 -32 107 1 0 76 -117 166 -260 184 -292 187
-294 154 -96 -38 224 -131 429 -380 836 -235 384 -307 529 -369 742 -22 75
-25 80 -32 54 -11 -46 3 -290 26 -421 26 -150 66 -303 136 -518 31 -92 54
-172 52 -177 -8 -24 -293 217 -463 392 -322 330 -535 705 -635 1118 -13 52
-27 100 -33 105 -15 15 -1 -391 18 -520 38 -266 104 -485 214 -710 135 -275
318 -515 546 -715 193 -169 184 -156 71 -109 -396 162 -693 407 -908 751 -32
50 -58 83 -58 73 0 -10 12 -69 26 -133 154 -687 520 -1248 1102 -1691 46 -34
82 -65 80 -67 -8 -7 -215 45 -303 76 -165 59 -303 129 -489 252 -49 32 -90 57
-92 55 -4 -4 193 -243 306 -372 204 -232 456 -486 680 -687 l75 -67 -41 -1
c-104 -1 -273 66 -442 176 -45 29 -82 50 -82 46 0 -17 174 -225 311 -373 138
-148 269 -301 269 -313 0 -3 -24 4 -52 15 -144 56 -270 176 -448 423 -62 88
-115 155 -117 149 -7 -21 79 -261 136 -379 89 -185 162 -286 396 -554 161
-185 265 -330 335 -470 l32 -64 -70 62 c-79 71 -247 247 -504 532 -97 107
-217 236 -268 285 l-91 90 66 -99 c108 -161 162 -280 190 -412 14 -67 48 -542
39 -552 -1 -2 -12 15 -24 37 -25 49 -54 81 -75 81 -32 0 -65 -125 -65 -249 0
-61 -1 -63 -22 -56 -57 17 -74 17 -93 -5 -18 -20 -20 -41 -25 -234 -3 -116 -9
-217 -13 -223 -18 -28 -56 -13 -112 44 -30 31 -55 60 -55 65 0 4 -4 8 -9 8
-20 0 -33 -73 -38 -220 -5 -171 -15 -220 -42 -220 -38 0 -56 -37 -54 -113 2
-82 40 -242 78 -324 l25 -55 -28 6 c-163 38 -175 5 -90 -240 50 -142 52 -154
53 -254 0 -58 6 -131 14 -162 16 -67 6 -91 -52 -122 -35 -18 -35 -18 -66 5
-17 12 -33 20 -37 16 -12 -12 17 -113 50 -172 18 -33 63 -103 100 -155 84
-117 105 -157 113 -216 5 -41 3 -48 -24 -77 -101 -107 -63 -193 136 -312 l65
-39 -39 -30 c-78 -61 -153 -138 -159 -162 -14 -56 61 -141 183 -207 95 -51
113 -119 60 -222 -65 -124 -70 -138 -65 -159 9 -36 52 -49 174 -54 61 -2 112
-6 112 -9 0 -3 -15 -23 -34 -46 -61 -76 -72 -118 -36 -137 21 -11 97 -2 214
25 71 17 122 19 131 5 3 -5 -2 -24 -11 -41 -22 -43 -15 -123 14 -152 17 -17
33 -21 75 -20 75 2 179 45 386 158 171 94 221 116 141 60 -57 -39 -139 -132
-161 -180 -21 -46 -24 -96 -7 -113 22 -22 83 -13 154 23 106 54 160 98 174
142 21 64 125 270 205 408 42 72 97 168 122 215 l46 85 -84 -81 c-158 -152
-338 -265 -533 -333 -49 -17 -90 -30 -92 -28 -2 1 50 62 116 135 65 73 132
149 148 170 47 58 132 185 132 195 0 5 -91 -39 -203 -96 -299 -155 -502 -241
-642 -271 -28 -6 -27 -4 20 36 93 78 145 135 145 156 0 31 -53 42 -199 42
-109 0 -122 2 -111 15 12 15 71 52 238 150 45 27 82 52 82 56 0 4 -35 10 -77
13 -266 23 -413 71 -413 135 0 28 40 92 75 121 10 8 31 33 47 54 36 51 37 97
2 125 -28 22 -120 54 -206 71 -94 18 -93 26 12 133 105 108 130 142 130 179 0
28 -50 97 -120 163 -23 22 -56 58 -73 79 l-31 39 33 -6 c18 -4 41 -2 52 3 38
21 22 76 -86 305 -66 138 -93 213 -105 291 -18 113 -10 116 81 30 68 -64 196
-152 207 -142 1 2 -15 39 -36 82 -66 134 -103 274 -118 443 l-7 85 34 -28
c118 -96 273 -195 285 -183 3 3 -12 32 -33 64 -96 141 -173 297 -187 375 -9
50 19 81 62 69 37 -11 87 -37 139 -72 23 -16 43 -29 45 -29 2 0 -23 54 -56
120 -50 100 -60 130 -61 172 0 48 2 53 27 62 76 27 374 -194 485 -360 l34 -51
-26 -89 c-148 -507 10 -1153 369 -1510 107 -106 212 -174 334 -217 75 -26 105
-31 212 -35 109 -3 137 0 222 22 53 13 136 43 184 65 48 23 91 41 95 41 17 0
9 -41 -21 -108 l-30 -67 41 45 c62 68 127 172 218 349 107 208 134 226 215
144 61 -62 246 -387 246 -431 0 -26 0 -26 -139 -26 -120 -1 -140 -14 -67 -46
75 -32 74 -43 -29 -169 -34 -43 -82 -110 -104 -149 -94 -157 -151 -392 -151
-619 0 -87 -3 -122 -11 -117 -21 13 -88 167 -105 242 -13 58 -15 103 -11 196
7 136 23 211 102 466 59 191 98 340 92 346 -10 10 -154 -258 -233 -432 -42
-95 -235 -547 -241 -566 -11 -38 -22 -15 -25 55 l-3 72 -26 -80 c-46 -138
-119 -510 -107 -546 2 -6 34 38 72 98 73 114 162 233 176 233 4 0 -6 -55 -22
-123 -48 -200 -68 -339 -68 -465 0 -113 15 -242 29 -242 3 0 15 39 24 87 10
48 32 130 49 182 34 107 135 387 147 409 6 11 18 -9 39 -64 56 -145 97 -311
193 -768 129 -618 236 -917 383 -1068 40 -41 106 -83 146 -93 24 -6 28 -1 59
72 112 258 298 518 569 791 133 135 212 208 642 588 229 203 486 460 602 604
69 86 188 258 246 356 l23 39 -6 -35 c-3 -19 -42 -106 -86 -194 -44 -87 -77
-161 -75 -164 14 -14 83 60 148 158 79 119 101 133 121 80 18 -47 45 -35 97
42 25 38 53 71 63 74 26 8 50 -17 77 -83 26 -64 60 -126 66 -120 2 2 -3 55
-11 117 -8 63 -15 119 -15 124 1 19 62 -105 91 -186 34 -92 71 -237 95 -373
27 -146 27 -537 1 -650 -20 -87 -65 -197 -77 -190 -4 3 -11 87 -14 187 -7 166
-15 260 -32 342 -5 25 -13 9 -49 -100 -99 -301 -270 -614 -468 -859 -82 -102
-253 -267 -337 -327 -69 -49 -181 -110 -188 -103 -2 2 23 36 56 75 241 287
499 749 571 1024 31 118 26 131 -19 49 -118 -217 -322 -466 -644 -788 -212
-212 -377 -355 -478 -417 -72 -44 -78 -45 -78 -16 0 39 81 159 239 353 67 83
64 83 -29 1 -30 -27 -134 -108 -230 -179 -531 -396 -669 -572 -670 -855 l-1
-97 -77 80 c-272 281 -519 697 -842 1415 -51 113 -96 209 -101 215 -5 5 -9
-127 -9 -325 l0 -335 -55 90 c-31 50 -80 141 -111 203 -55 114 -154 352 -154
372 0 5 -5 10 -11 10 -16 0 -4 -492 15 -665 9 -71 16 -137 16 -144 0 -21 -61
40 -122 119 -125 164 -181 364 -204 735 -4 68 -10 102 -14 90 -5 -11 -21 -60
-36 -110 -37 -119 -151 -345 -211 -420 -52 -64 -94 -88 -116 -66 -13 13 -16
180 -4 241 l7 35 -40 -45 c-67 -76 -207 -258 -231 -300 -34 -60 -43 -50 -35
38 14 157 63 281 236 597 l44 80 -42 -33 c-23 -19 -76 -71 -117 -116 -41 -45
-104 -106 -140 -136 -65 -54 -175 -123 -183 -115 -3 2 32 63 77 136 45 72 80
133 78 135 -2 2 -44 -13 -93 -35 -120 -52 -266 -98 -366 -115 -46 -8 -84 -13
-86 -11 -2 2 145 92 327 201 182 109 329 200 327 202 -2 2 -109 -26 -236 -63
-341 -97 -570 -149 -556 -127 3 6 72 50 152 99 143 86 224 145 224 164 0 19
-101 8 -324 -37 -235 -46 -355 -58 -376 -38 -17 17 34 70 124 129 42 27 76 52
76 55 0 3 -35 20 -77 38 -98 40 -182 88 -190 108 -3 9 4 35 16 58 35 72 28
107 -43 215 -103 158 -100 231 12 260 53 15 53 24 3 132 -52 113 -107 264
-116 317 -9 58 11 90 62 94 66 5 60 41 -36 216 -30 56 -59 102 -62 102 -7 0
-37 -106 -61 -215 -9 -41 -13 -136 -12 -300 0 -221 3 -262 38 -515 47 -342 58
-613 32 -780 -14 -91 -55 -228 -97 -327 -11 -26 -11 -35 -1 -45 8 -8 17 -9 26
-3 7 6 32 25 56 42 62 47 74 34 67 -72 -11 -152 -21 -177 -99 -258 -798 -819
-1215 -2355 -1017 -3742 77 -537 244 -1006 494 -1380 51 -78 100 -147 108
-154 14 -11 14 -7 1 41 -91 342 -129 757 -113 1258 7 239 54 970 66 1040 6 34
7 33 14 -20 4 -30 13 -120 19 -200 23 -298 42 -488 61 -598 10 -63 19 -119 19
-125 0 -7 5 -6 11 3 6 10 9 89 7 220 -3 280 0 426 11 415 4 -6 16 -62 26 -125
127 -842 353 -1399 714 -1767 87 -89 201 -187 208 -180 2 3 -32 147 -76 320
-103 402 -131 553 -138 734 -3 79 -3 143 0 143 3 0 24 -58 46 -130 23 -71 46
-132 52 -136 8 -5 9 25 5 107 l-7 114 49 -120 c347 -846 896 -1424 1692 -1783
157 -70 387 -158 395 -150 3 3 -61 89 -143 191 -710 890 -1035 1640 -1057
2442 l-5 180 45 -170 c170 -639 375 -1112 681 -1570 162 -243 336 -456 525
-640 91 -89 91 -88 3 40 -313 455 -537 1008 -668 1650 -39 194 -88 500 -84
524 2 9 23 -49 47 -129 141 -465 294 -868 451 -1185 105 -213 227 -431 236
-423 2 3 -5 31 -16 64 -175 503 -296 1056 -344 1564 -24 246 -24 250 -17 250
3 0 42 -121 85 -268 103 -347 211 -673 279 -842 56 -139 158 -363 163 -357 2
1 -12 86 -31 188 -68 368 -116 810 -145 1319 -12 228 -21 508 -15 495 2 -5 33
-122 69 -260 74 -285 123 -445 136 -445 19 0 15 119 -10 375 -11 105 -22 219
-25 255 l-5 65 20 -55 c12 -30 43 -134 71 -230 90 -315 182 -610 190 -610 4 0
5 61 2 135 -4 86 -2 135 4 135 5 0 27 -77 47 -170 77 -347 104 -386 107 -155
1 113 1 113 49 -94 113 -486 314 -955 580 -1351 353 -524 792 -892 1310 -1094
112 -43 382 -121 400 -114 5 2 -32 37 -83 78 -216 177 -526 502 -710 747 -486
645 -725 1379 -656 2011 12 111 56 343 68 355 4 4 18 -75 30 -175 26 -209 68
-464 79 -485 5 -8 16 84 26 209 34 435 75 849 86 861 4 5 11 -51 14 -125 15
-297 28 -497 37 -568 15 -125 41 -252 49 -243 4 4 20 82 35 173 15 91 32 169
36 175 5 5 9 -142 9 -330 0 -621 35 -960 126 -1252 l28 -88 7 60 c4 33 15 123
24 200 20 171 48 324 126 695 63 300 77 351 78 290 2 -85 32 -445 47 -550 14
-108 62 -335 69 -328 2 2 15 47 29 101 27 104 83 247 96 247 4 0 11 -33 14
-72 12 -119 54 -353 91 -498 77 -306 218 -633 374 -866 126 -189 333 -417 485
-535 l28 -22 -7 24 c-4 13 -54 118 -112 232 -208 416 -319 675 -388 901 -42
140 -77 293 -72 315 1 9 66 -78 145 -198 79 -117 169 -246 201 -285 65 -78
147 -160 138 -136 -3 8 -37 91 -76 183 -68 160 -146 376 -138 383 1 2 56 -53
120 -121 216 -228 403 -364 582 -424 240 -80 478 -55 855 90 109 41 168 65
330 136 l35 15 -25 10 c-45 17 -115 27 -272 38 -438 30 -601 57 -755 125 -62
28 -173 96 -173 106 0 4 33 10 73 14 229 20 394 38 482 51 121 18 307 55 302
61 -2 2 -67 8 -143 13 -176 13 -406 37 -427 46 -50 19 -11 28 353 85 284 44
432 72 602 114 99 25 131 45 73 45 -40 0 -284 66 -383 104 -448 172 -812 481
-1074 913 -198 326 -327 723 -367 1127 -13 128 -14 505 -3 524 6 8 13 -8 21
-45 36 -161 217 -739 251 -802 4 -8 11 89 14 215 10 326 39 667 56 647 4 -4
37 -116 75 -248 77 -271 113 -368 136 -373 24 -5 29 37 29 261 0 110 3 198 6
195 23 -24 57 -274 79 -588 15 -209 31 -359 39 -367 2 -2 16 50 31 114 36 157
183 760 193 798 6 20 11 -54 16 -210 14 -469 48 -731 127 -985 l24 -75 5 180
c3 99 8 173 12 165 4 -8 35 -125 68 -260 69 -274 126 -481 164 -585 l26 -70
-5 185 c-16 588 -17 710 -8 710 5 0 24 -35 43 -77 88 -204 231 -470 294 -548
l25 -30 -34 160 c-36 172 -62 284 -154 665 -117 480 -164 714 -202 1005 -19
150 -39 556 -26 545 3 -3 31 -116 62 -250 124 -534 239 -877 410 -1215 100
-197 238 -420 243 -392 2 9 -12 144 -32 299 -40 326 -49 425 -37 412 4 -5 34
-81 66 -169 75 -210 158 -420 205 -520 l37 -80 6 95 c3 52 11 215 17 362 6
147 15 315 20 375 14 166 32 324 36 320 3 -2 27 -123 55 -268 28 -145 52 -265
53 -267 7 -6 27 220 46 503 11 165 25 350 31 410 13 140 48 376 58 393 4 8 11
-71 15 -174 6 -176 26 -404 45 -519 10 -61 11 -55 40 140 28 187 47 246 64
201 12 -32 27 -185 47 -476 31 -468 60 -730 92 -845 11 -40 11 -39 38 90 30
140 44 185 59 185 22 0 35 -105 57 -455 9 -148 19 -274 24 -278 11 -12 93 245
139 438 23 94 54 224 70 290 l29 120 1 -230 c2 -612 -59 -1160 -183 -1627 -37
-143 -34 -147 42 -64 123 134 229 353 418 869 97 264 142 367 159 367 16 0 25
-22 26 -63 1 -57 16 1 29 109 14 118 38 246 50 257 12 13 23 -326 16 -476 -21
-424 -76 -744 -182 -1068 -60 -185 -115 -315 -214 -507 -44 -85 -78 -157 -76
-159 2 -2 57 49 123 114 269 266 446 552 574 922 188 545 224 1207 114 2061
-9 63 -18 126 -21 140 -4 17 -2 22 5 15 5 -6 46 -136 90 -290 78 -275 135
-452 150 -468 5 -4 11 32 14 80 4 48 18 230 31 403 14 173 28 364 32 424 3 60
10 103 14 95 4 -8 20 -66 36 -129 l28 -115 7 55 c4 30 11 82 14 115 5 38 10
54 15 45 28 -51 106 -499 131 -754 7 -69 16 -123 20 -120 4 2 12 37 19 77 16
107 31 167 40 167 15 0 25 -170 24 -385 -1 -232 -20 -384 -73 -608 -55 -231
-161 -526 -282 -784 -27 -58 -48 -108 -46 -110 6 -6 194 205 296 332 119 149
224 293 466 642 104 150 190 271 192 269 6 -5 -130 -302 -237 -521 -111 -226
-213 -414 -339 -625 -118 -199 -120 -204 -50 -130 101 106 290 347 524 669
121 166 221 298 223 292 5 -15 -44 -173 -85 -271 -48 -117 -145 -309 -237
-468 -43 -74 -75 -136 -72 -139 3 -3 57 45 121 107 63 63 117 111 120 108 9
-9 -80 -208 -207 -462 -76 -152 -112 -234 -98 -221 13 11 73 76 133 145 572
646 1047 1454 1340 2280 359 1011 422 1989 180 2790 -55 181 -98 293 -183 468
-84 172 -82 163 -31 178 7 2 82 -3 166 -12 108 -12 166 -14 197 -8 l43 10 -75
43 c-300 175 -409 343 -379 583 5 43 23 131 40 196 158 611 164 652 163 1017
0 226 -4 293 -22 412 -30 189 -37 208 -46 113 -46 -471 -250 -867 -786 -1525
-58 -71 -109 -134 -112 -140 -4 -6 12 -10 40 -10 43 0 47 -2 50 -26 8 -66
-223 -286 -485 -463 -125 -84 -203 -126 -283 -152 l-55 -18 61 -27 c33 -15
126 -50 205 -78 79 -27 167 -59 194 -71 45 -20 48 -23 28 -31 -83 -31 -267
-34 -823 -13 -256 10 -336 -16 -334 -108 2 -70 45 -146 173 -302 l65 -79 -41
24 c-23 13 -45 21 -48 17 -4 -3 7 -39 24 -79 40 -95 39 -114 -2 -67 -17 20
-44 44 -59 53 -26 16 -28 16 -34 0 -4 -10 0 -67 10 -129 17 -117 22 -267 8
-250 -5 5 -24 50 -42 99 -38 103 -99 230 -107 222 -3 -3 0 -54 7 -112 14 -119
5 -152 -25 -94 -33 63 -162 254 -230 338 -98 121 -186 211 -295 304 -52 44
-99 85 -105 90 -18 17 123 -3 275 -38 81 -19 169 -36 196 -37 45 -3 49 -1 52
21 3 19 -13 41 -80 105 -46 45 -103 95 -128 112 -53 35 -62 65 -27 89 23 15
28 15 64 -1 24 -10 77 -18 143 -21 180 -9 292 24 665 197 116 53 232 105 258
114 36 14 58 31 88 71 49 65 73 82 138 96 28 6 77 28 109 49 86 55 112 111
112 238 0 66 5 104 16 128 23 48 92 106 210 176 448 266 708 654 779 1164 19
128 21 438 5 570 -58 482 -228 997 -506 1532 -46 89 -84 164 -84 167 0 2 13 6
29 10 16 3 35 13 41 21 32 37 -17 91 -262 288 -90 73 -164 139 -166 148 -5 28
82 -2 213 -72 64 -34 121 -60 126 -58 6 2 -5 24 -23 48 -19 25 -83 123 -144
219 -110 174 -205 292 -270 331 -35 22 -94 24 -138 5 -15 -7 -17 -5 -13 11 3
10 11 109 17 219 14 266 39 403 92 508 11 22 18 41 15 43 -2 2 -69 -40 -148
-95 -417 -285 -687 -423 -924 -472 -94 -20 -240 -26 -231 -10 12 19 146 101
252 154 60 30 217 100 349 156 367 156 524 246 661 376 85 81 70 79 -113 -16
-99 -51 -143 -69 -172 -69 -33 0 -40 3 -43 23 -2 15 -9 21 -23 20 -27 -2 -146
-44 -268 -94 -106 -43 -200 -59 -246 -42 -23 9 -21 12 50 73 94 81 236 186
519 385 528 371 730 547 925 808 28 37 25 36 -90 -39 -135 -88 -323 -188 -439
-234 -81 -32 -287 -93 -293 -86 -2 2 49 36 114 76 472 294 845 676 1116 1145
94 163 288 588 274 601 -2 3 -30 -30 -63 -73 -343 -457 -1022 -935 -1594
-1124 -126 -41 -307 -85 -316 -76 -2 1 50 34 114 72 891 527 1451 1192 1596
1898 16 78 40 267 34 272 -2 2 -19 -26 -38 -63z m-2440 -1293 c-73 -66 -225
-187 -385 -309 -387 -293 -544 -469 -646 -725 -67 -169 -149 -304 -266 -437
-74 -84 -171 -174 -179 -165 -3 2 18 67 46 143 28 76 50 146 48 156 -2 12 -71
-58 -217 -218 -118 -129 -223 -242 -233 -251 -18 -16 -18 -15 -4 25 26 74 36
152 45 377 10 242 20 292 74 371 33 50 37 52 257 174 172 95 398 230 765 458
457 285 717 442 729 442 6 -1 -9 -19 -34 -41z m-585 -976 c-29 -88 -95 -207
-167 -301 -98 -127 -284 -293 -458 -409 -86 -58 -260 -157 -265 -152 -2 2 42
40 98 84 212 167 513 489 726 776 51 68 87 110 90 101 1 -8 -9 -53 -24 -99z
m-2570 -12 c231 -18 451 -40 615 -62 159 -22 224 -37 165 -38 -16 -1 -88 -5
-160 -10 -129 -10 -309 -17 -1090 -46 -608 -23 -953 -49 -1315 -101 -743 -106
-1311 -306 -1802 -634 -82 -55 -148 -97 -148 -94 0 14 68 137 105 189 61 86
209 223 318 295 424 282 1139 456 2081 510 193 11 1047 4 1231 -9z m210 -401
c-22 -11 -112 -52 -200 -93 -273 -124 -428 -226 -589 -384 l-89 -88 6 62 c19
226 282 397 767 497 140 29 157 30 105 6z m-2692 -282 c-11 -13 -116 -137
-233 -276 -117 -139 -215 -251 -217 -248 -7 7 42 122 78 183 48 80 158 194
274 284 100 78 136 99 98 57z m1632 -47 c-6 -4 -91 -66 -190 -137 -399 -284
-640 -486 -923 -774 l-104 -105 62 92 c226 338 568 629 1014 864 121 64 165
82 141 60z m1055 -137 c-93 -95 -280 -241 -610 -475 -215 -153 -363 -273 -482
-391 -99 -100 -103 -95 -33 39 149 282 440 525 902 751 295 145 286 142 223
76z m-3618 -169 c-27 -30 -76 -101 -109 -158 -33 -56 -82 -140 -109 -186 -100
-171 -182 -246 -281 -257 -28 -4 -53 -2 -56 3 -9 14 35 103 99 201 77 119 248
287 387 380 59 39 110 72 113 72 3 0 -17 -25 -44 -55z m908 -293 c-242 -189
-384 -351 -488 -557 -85 -170 -121 -322 -131 -545 l-6 -155 -27 45 c-15 25
-39 81 -54 125 -23 68 -28 96 -28 185 0 127 18 201 79 325 59 118 122 201 242
316 108 103 195 165 336 240 103 54 129 62 77 21z m1260 -256 c0 -2 -28 -23
-62 -46 -183 -127 -338 -279 -620 -608 -110 -128 -202 -231 -205 -229 -10 11
23 110 67 202 134 276 425 540 720 652 83 32 100 37 100 29z m-1160 -172 c-11
-25 -38 -110 -60 -188 -23 -77 -56 -172 -74 -211 -36 -76 -104 -159 -156 -189
l-33 -19 7 66 c14 135 74 279 168 405 48 64 154 182 163 182 3 0 -5 -21 -15
-46z m-1453 -56 c85 -94 130 -201 174 -421 16 -82 28 -152 25 -154 -2 -2 -17
13 -33 34 -137 176 -237 395 -258 567 l-8 59 30 -21 c16 -11 47 -40 70 -64z
m7603 -62 c0 -9 -168 -135 -270 -203 -383 -255 -745 -413 -1665 -728 -355
-122 -491 -170 -654 -234 -58 -22 -107 -39 -108 -37 -8 7 167 113 292 177 72
36 203 95 292 130 147 57 160 64 142 77 -27 19 -24 36 16 71 99 87 462 231
1315 524 424 146 585 203 608 217 18 10 32 13 32 6z m-1310 -90 c0 -8 -111
-90 -155 -115 -93 -54 -288 -112 -369 -111 -35 1 36 55 139 105 91 45 385 137
385 121z m-3074 -80 c-17 -168 -106 -318 -297 -501 -46 -44 -112 -107 -146
-139 -34 -33 -65 -57 -68 -54 -9 9 60 181 106 268 56 105 156 252 227 335 60
70 156 155 175 155 6 0 7 -23 3 -64z m-1830 -453 c-145 -219 -236 -384 -363
-663 l-21 -45 -12 30 c-7 17 -15 64 -18 107 -9 144 48 265 190 405 90 89 254
210 224 166z m-1630 -165 c72 -54 145 -134 197 -214 54 -84 90 -154 79 -154
-15 0 -148 136 -263 270 -64 74 -126 144 -138 154 -11 11 -21 23 -21 29 0 12
80 -35 146 -85z m2359 -37 c-6 -4 -59 -43 -120 -86 -129 -92 -322 -245 -415
-329 -87 -79 -259 -256 -323 -333 -61 -74 -72 -62 -27 31 120 252 522 610 792
706 56 20 109 26 93 11z m-2623 -155 c32 -43 71 -99 85 -124 31 -52 73 -164
73 -193 0 -19 0 -19 -37 0 -56 28 -126 94 -168 156 -51 78 -75 154 -75 239 l1
71 31 -35 c16 -19 57 -71 90 -114z m1254 -501 c33 -307 20 -514 -41 -660 -22
-52 -26 -43 -61 140 -23 126 -28 177 -28 315 -1 181 8 229 67 370 l31 75 7
-35 c4 -19 16 -111 25 -205z m1588 88 c-146 -182 -595 -664 -602 -644 -6 19
78 179 136 257 32 44 98 116 146 162 84 78 331 271 350 272 4 0 -9 -21 -30
-47z m6379 -198 c180 -469 249 -718 278 -1010 11 -114 8 -340 -7 -427 -9 -54
6 -49 77 25 l61 62 -7 -40 c-10 -56 -53 -146 -118 -248 -90 -139 -110 -184
-108 -243 4 -143 -40 -297 -140 -480 -38 -69 -69 -127 -69 -129 0 -12 38 -12
81 1 62 19 101 8 92 -25 -10 -37 -74 -100 -161 -158 -166 -108 -203 -149 -223
-243 -38 -186 -299 -471 -496 -541 -79 -28 -203 -31 -231 -6 -59 53 -23 92
131 143 137 45 199 75 226 110 42 53 18 154 -44 179 -19 9 -35 18 -35 20 0 3
11 27 24 53 30 59 49 151 40 188 -12 48 -42 83 -85 95 -21 7 -39 16 -39 20 0
5 28 27 62 51 171 116 216 200 148 277 -17 18 -30 38 -30 43 0 22 37 91 99
188 99 152 134 225 139 290 3 46 0 60 -19 84 -24 31 -91 65 -126 66 -32 0 -29
10 18 55 22 22 64 72 94 110 153 200 229 444 255 822 6 87 15 201 19 253 l7
95 12 -65 c37 -202 40 -520 7 -778 -48 -379 -140 -741 -341 -1337 -96 -285
-103 -311 -87 -322 26 -20 55 -15 105 16 153 97 378 636 378 906 0 66 4 81 35
138 47 85 92 210 118 327 17 79 21 128 21 295 0 249 -19 372 -135 837 -96 385
-130 542 -114 527 2 -3 42 -104 88 -224z m-8789 -355 c108 -98 179 -182 215
-254 32 -64 65 -175 59 -202 -2 -12 -327 443 -381 534 -16 26 24 -4 107 -78z
m4901 -185 c117 -31 189 -113 231 -266 30 -105 25 -367 -9 -529 -14 -69 -35
-152 -46 -185 -11 -33 -18 -61 -16 -63 1 -2 23 23 48 55 136 177 99 50 -50
-172 -223 -332 -474 -555 -672 -596 -31 -6 -85 -23 -121 -37 -58 -24 -78 -26
-190 -26 -106 0 -138 5 -214 28 -425 129 -805 525 -756 787 12 61 38 106 86
149 43 37 220 124 239 116 8 -3 23 -38 35 -78 70 -243 173 -367 362 -435 64
-24 88 -27 198 -27 104 -1 138 3 200 23 389 121 589 445 489 795 l-10 38 -43
-45 c-54 -55 -103 -74 -156 -58 -73 22 -130 119 -116 195 10 52 51 92 121 119
58 23 60 25 58 58 -1 19 -5 48 -8 66 -9 40 12 54 110 77 132 29 153 31 230 11z
m-4265 -305 c71 -142 111 -290 78 -290 -19 0 -31 11 -57 48 -12 17 -31 32 -41
32 -37 0 -54 -48 -78 -225 l-9 -60 -13 30 c-22 47 -19 293 3 375 18 67 62 170
71 170 3 0 24 -36 46 -80z m-1822 -157 c97 -94 103 -112 77 -249 -19 -100 -16
-166 11 -264 79 -281 387 -451 699 -385 38 8 71 15 73 15 10 0 -30 -54 -75
-101 -77 -81 -151 -113 -263 -113 -132 -1 -249 46 -384 154 -141 112 -251 276
-297 445 -21 77 -22 87 -11 270 6 105 16 208 23 230 12 44 35 75 54 75 7 0 49
-35 93 -77z m-274 -233 c90 -433 278 -754 511 -872 112 -57 161 -70 295 -75
124 -5 149 -2 330 42 21 6 18 0 -20 -36 -66 -61 -152 -115 -228 -141 -96 -33
-231 -31 -324 4 -105 40 -175 86 -269 178 -219 216 -349 522 -349 821 0 91 15
218 25 207 1 -2 14 -59 29 -128z m3251 -674 c-24 -58 -35 -100 -33 -123 3 -36
4 -35 81 81 43 65 80 116 83 113 3 -2 -2 -38 -11 -78 -15 -76 -21 -97 -98
-359 -24 -85 -48 -171 -52 -190 -7 -34 -6 -34 9 -13 15 20 125 231 225 432 23
45 44 81 47 78 2 -2 -11 -96 -31 -209 -19 -112 -37 -237 -40 -278 l-6 -75 39
75 c22 41 63 140 92 220 61 166 98 255 105 248 3 -2 -2 -71 -11 -152 -9 -81
-13 -164 -9 -184 l7 -37 19 36 c10 20 38 96 63 167 49 144 75 201 76 167 0
-11 -9 -90 -20 -175 -11 -85 -20 -191 -19 -235 l0 -80 21 45 c11 25 48 130 83
234 35 104 69 194 74 199 8 8 11 -12 11 -68 0 -44 7 -177 15 -295 35 -511 10
-773 -93 -993 -36 -77 -116 -207 -128 -207 -2 0 3 17 12 38 70 163 85 248 90
517 5 270 13 275 -106 -56 -123 -342 -184 -468 -300 -614 -33 -41 -62 -75 -65
-75 -3 0 17 44 44 98 99 198 166 405 196 608 17 111 26 353 16 424 -6 44 -6
43 -19 -40 -53 -333 -198 -635 -463 -961 -92 -113 -508 -543 -517 -534 -6 6
77 116 230 302 69 84 151 191 182 238 56 84 142 243 134 250 -2 2 -22 -19 -45
-48 -22 -29 -117 -132 -210 -228 -209 -218 -267 -284 -332 -378 -28 -41 -51
-72 -51 -68 0 4 25 71 55 150 211 557 192 770 -64 724 l-44 -8 138 143 c76 79
162 175 191 213 53 71 128 214 118 224 -9 9 -298 -292 -385 -400 -43 -55 -106
-142 -141 -195 l-62 -96 -29 33 c-48 57 -104 160 -134 244 -25 72 -28 93 -27
215 0 99 4 152 17 199 78 279 317 593 586 771 186 123 214 66 54 -109 -36 -40
-64 -74 -61 -76 14 -14 105 50 209 149 108 104 154 140 133 104 -78 -133 -168
-244 -378 -468 -200 -214 -287 -312 -281 -318 5 -6 201 147 328 256 179 153
433 424 500 533 12 19 12 19 15 1 2 -11 -13 -58 -33 -106z m944 -263 c16 -57
48 -189 71 -295 68 -323 108 -454 177 -592 19 -37 32 -70 30 -72 -9 -9 -120
124 -167 199 -90 147 -132 321 -150 623 -17 303 -14 315 39 137z m-115 -93
c62 -234 119 -616 114 -771 l-3 -94 -18 95 c-10 52 -40 178 -67 280 -60 224
-80 336 -80 444 0 94 9 161 21 149 4 -4 19 -51 33 -103z m-2179 -557 c29 -6
29 -6 -25 -30 -162 -71 -274 -224 -335 -457 -43 -166 -58 -350 -52 -616 9
-349 44 -643 147 -1229 27 -157 48 -286 46 -289 -14 -13 -99 242 -151 452
-148 602 -196 1315 -115 1711 47 230 143 394 258 442 73 30 132 35 227 16z
m-87 -597 c44 -23 148 -146 123 -146 -5 0 -13 5 -17 11 -3 6 -24 19 -46 29
-58 26 -88 15 -117 -44 -23 -45 -25 -64 -32 -276 -6 -176 -11 -235 -23 -258
-22 -43 -36 -49 -57 -24 -56 70 -50 443 11 605 38 102 92 137 158 103z m181
-1455 c-35 -419 -67 -761 -70 -761 -14 0 -39 140 -50 267 -17 220 11 544 76
868 35 173 94 399 102 391 3 -2 -24 -347 -58 -765z m7962 -64 c49 -237 125
-422 403 -970 108 -213 196 -395 196 -403 0 -23 -47 8 -136 90 -258 237 -468
659 -525 1054 -14 98 -7 315 12 382 l13 45 9 -50 c4 -27 17 -94 28 -148z m554
91 c21 -77 109 -321 203 -563 150 -388 226 -645 257 -869 16 -114 19 -339 6
-416 l-8 -45 -20 45 c-11 25 -64 140 -118 255 -367 793 -465 1218 -369 1599 9
36 20 64 24 61 4 -2 15 -33 25 -67z m-11558 -444 c-41 -82 -109 -227 -151
-321 -42 -95 -110 -251 -152 -345 -91 -206 -226 -479 -296 -598 -91 -154 -243
-370 -260 -370 -11 0 -10 49 3 171 41 410 240 835 588 1259 88 108 331 363
338 356 2 -2 -29 -71 -70 -152z m8873 -339 c66 -521 183 -951 249 -910 51 31
85 256 98 645 4 128 10 206 15 195 4 -11 31 -127 58 -259 57 -269 78 -341 99
-341 20 0 29 41 37 160 9 124 17 104 38 -95 31 -282 38 -442 33 -684 -6 -268
-18 -350 -68 -454 -51 -105 -111 -126 -195 -70 -134 90 -280 372 -369 711 -76
291 -98 464 -99 777 0 271 13 404 60 585 8 34 6 48 44 -260z m1770 -335 c94
-283 186 -573 205 -645 81 -299 115 -526 115 -765 0 -150 -21 -366 -39 -398
-22 -40 -162 217 -224 413 -72 225 -111 415 -192 940 -31 198 -67 416 -81 485
-13 69 -24 130 -24 135 0 6 15 -17 33 -49 18 -33 38 -62 45 -64 19 -6 15 109
-13 332 -28 221 -29 254 -9 181 8 -27 91 -282 184 -565z m-10164 498 c-22 -72
-63 -162 -177 -390 -60 -120 -107 -218 -105 -218 3 0 36 42 74 93 71 95 112
138 112 119 0 -16 -84 -226 -200 -497 -54 -126 -118 -287 -144 -357 -46 -129
-109 -338 -103 -345 2 -2 51 59 108 134 117 155 213 262 225 250 11 -11 -45
-144 -143 -339 -46 -93 -81 -168 -79 -168 8 0 154 236 309 501 174 297 228
388 265 439 29 42 29 39 -43 -125 -32 -71 -118 -274 -192 -450 -350 -832 -570
-1273 -701 -1410 -76 -79 -115 -80 -148 -3 -26 63 -31 341 -10 595 9 109 18
225 20 258 17 233 162 626 409 1109 218 426 480 846 528 846 4 0 2 -19 -5 -42z
m841 -120 c-45 -180 -84 -493 -93 -743 -7 -173 8 -554 25 -661 l8 -49 32 70
c53 113 109 285 172 525 66 253 68 240 13 -130 -104 -700 -240 -1143 -371
-1205 -34 -16 -37 -16 -62 2 -140 104 -172 642 -71 1203 55 305 157 621 287
893 56 115 71 139 60 95z m9683 -658 c65 -165 204 -439 216 -427 8 8 -83 344
-131 485 -11 31 9 4 68 -95 410 -684 551 -1248 450 -1810 -9 -51 -19 -93 -23
-93 -10 0 -54 93 -97 205 -115 294 -297 870 -423 1334 -72 266 -128 532 -106
510 2 -2 23 -51 46 -109z m-6011 -230 c-53 -246 -83 -655 -76 -1044 7 -347 24
-461 80 -523 48 -54 106 -5 188 161 l60 121 -5 -100 c-5 -93 -5 -98 9 -68 8
17 33 105 55 195 63 252 65 251 45 -18 -52 -697 -138 -1084 -269 -1203 -112
-103 -256 116 -336 511 -132 645 -64 1411 165 1883 56 114 94 180 100 174 1
-2 -5 -42 -16 -89z m-1604 -702 c-18 -108 -37 -236 -40 -285 -3 -48 -9 -99
-11 -113 -8 -39 7 -16 36 53 15 36 32 62 40 62 13 0 15 -31 14 -205 -1 -229
-17 -414 -99 -1162 -30 -274 -55 -511 -55 -528 0 -49 -17 -35 -43 38 -39 103
-45 128 -67 255 -90 532 -3 1439 185 1927 47 121 66 163 70 158 3 -2 -11 -92
-30 -200z m-2918 -483 c-11 -304 2 -628 33 -847 12 -79 25 -156 29 -173 l8
-30 7 35 c3 19 13 103 21 185 9 83 24 188 35 235 18 82 58 205 65 198 2 -2 7
-73 10 -158 11 -287 35 -645 60 -921 25 -263 79 -776 90 -849 l5 -35 -55 58
c-242 255 -460 627 -564 964 -79 255 -105 434 -105 703 1 164 5 231 23 335 25
149 79 365 92 365 5 0 10 -91 11 -202 l3 -203 47 120 c26 66 67 176 92 245 46
129 95 245 100 239 1 -2 -2 -121 -7 -264z"/>
<path d="M9950 9567 c0 -13 46 -139 62 -172 34 -67 105 -160 155 -205 47 -41
188 -130 207 -130 5 0 -40 51 -100 113 -110 112 -208 232 -279 340 -34 51 -45
64 -45 54z"/>
<path d="M9150 8578 c-85 -181 -255 -667 -238 -684 7 -7 94 159 142 271 24 55
58 145 75 200 32 99 83 315 74 315 -2 0 -26 -46 -53 -102z"/>
<path d="M12298 3433 c-42 -46 -96 -187 -113 -293 -13 -76 -8 -289 10 -421 26
-206 21 -203 92 -64 101 198 143 341 143 478 0 109 -36 219 -94 292 -21 26
-22 26 -38 8z"/>
<path d="M7167 2132 c-23 -25 -40 -114 -35 -182 8 -109 144 -338 269 -454 100
-93 149 -81 149 35 0 149 -148 462 -273 577 -50 46 -84 53 -110 24z"/>
</g>
</svg>
